<?xml version="1.0" encoding="UTF-8"?><svg xmlns="http://www.w3.org/2000/svg" viewBox="0 0 273.39 144.93"><defs><style>.d,.e{fill:#fff;}.e{mix-blend-mode:multiply;}.f{isolation:isolate;}</style></defs><g class="f"><g id="a"/><g id="b"><g id="c"><g><rect class="d" x="50.1" y="126.15" width="100.45" height="18.79"/><path class="e" d="M251.17,24.63l-19.95,52.04-19.2-52.04h-23.46l31.34,78.27c-5.41,13.81-18.92,23.07-33.71,23.07h-.86v18.97h.86c22.5,0,42.96-13.94,51.29-34.8h0l35.91-85.5h-22.22Z"/><path class="e" d="M80.24,103.28c6.04,3.43,12.97,5.17,20.59,5.17,9.36,0,17.32-2.38,23.67-7.08,6.34-4.69,10.78-10.81,13.2-18.16l.37-1.13h-19.25l-.24,.48c-3.48,7.06-9.29,10.49-17.75,10.49-5.83,0-10.82-1.84-14.81-5.48-3.78-3.44-6.01-8.01-6.62-13.61h59.79l.12-.72c.38-2.41,.58-5.14,.58-8.12,0-7.71-1.67-14.63-4.95-20.58-3.29-5.95-7.96-10.65-13.87-13.94h0c-5.9-3.29-12.71-4.95-20.23-4.95s-14.83,1.71-20.87,5.1c-6.06,3.39-10.82,8.28-14.16,14.53-3.33,6.22-5.02,13.53-5.02,21.71s1.74,15.5,5.16,21.72c3.43,6.24,8.24,11.15,14.29,14.58Zm-.65-44.15c.85-5.39,3.11-9.75,6.71-12.96,3.81-3.4,8.46-5.13,13.82-5.13,5.93,0,10.97,1.75,14.97,5.21,3.77,3.25,5.81,7.58,6.09,12.88h-41.58Z"/><rect class="e" x="158.09" width="17.96" height="105.67"/><path class="e" d="M54.34,25.56c-14.19,0-27.12,5.47-36.81,14.41v-14.64H.04v53.02c-.01,.51-.04,1.03-.04,1.54H.04v26.42H17.53v-30.76c2.16-18.4,17.83-32.74,36.81-32.74V25.56Z"/></g></g></g></g></svg>